<svg width="89" height="99" viewBox="0 0 89 99" fill="none" xmlns="http://www.w3.org/2000/svg">
<g id="100 &#208;&#188;&#208;&#176;&#209;&#130;&#208;&#181;&#209;&#128;&#208;&#184;&#208;&#176;&#208;&#190;">
<path id="Vector 107" d="M40.8989 69.0831L29.1856 80.0642L21.6551 87.2524C21.3655 87.5289 21.3517 87.9867 21.6241 88.2801L30.1465 97.4581C30.4236 97.7565 30.891 97.7714 31.1866 97.4913L79.6989 51.5132L81.529 49.6831L82.9932 47.4868L88.0449 37.0225C88.0928 36.9233 88.1177 36.8145 88.1177 36.7043V34.9787C88.1177 34.7846 88.0406 34.5984 87.9033 34.4611L87.234 33.7918C87.0967 33.6545 86.9105 33.5774 86.7164 33.5774H84.6255C84.5148 33.5774 84.4056 33.6025 84.3061 33.6507L72.4745 39.3873C72.4106 39.4183 72.3515 39.4584 72.2992 39.5064L67.9856 43.4604L40.8989 69.0831Z" stroke="white" stroke-width="0.366038"/>
<path id="Vector 108" d="M76.4038 19.6679L57.9503 1.21442C57.813 1.07713 57.6268 1 57.4326 1H2.46479C1.00064 1.36604 1.36667 2.46415 1.36667 4.29434L1.00208 92.3727C1.00072 92.7004 1.0971 93.0211 1.27889 93.2938V93.2938C1.56443 93.7221 2.03371 93.9924 2.54748 94.0245L6.8205 94.2916C7.30142 94.3217 7.73676 94.5864 7.98467 94.9996L9.27011 97.142C9.58053 97.6594 10.1765 97.9333 10.7713 97.8321L26.9887 95.0717L23.3289 90.6792H4.66101V4.29434H54.9V19.6167C54.9 20.947 55.7819 22.1161 57.061 22.4816V22.4816C57.3272 22.5576 57.6027 22.5962 57.8795 22.5962H72.744M76.4038 19.6679V37.0652L72.744 38.8653V22.5962M76.4038 19.6679L72.744 22.5962M70.5472 18.9358L58.4679 6.8566V18.9358H70.5472Z" stroke="white" stroke-width="0.366038"/>
<path id="Vector 109" d="M73.1089 58.1019L78.5995 52.9774L83.171 85.3298C83.2827 86.1201 82.8768 86.8934 82.1629 87.2504V87.2504C81.9847 87.3395 81.7933 87.3993 81.5961 87.4276L76.4033 88.1726V93.9736C76.4033 94.3396 67.2523 94.0468 35.041 94.3396L38.7014 90.6792M73.1089 58.1019L72.7429 90.6792H38.7014M73.1089 58.1019L65.4221 65.4226H67.6184V69.083H61.3957L53.8895 76.4038H69.4486V80.0641H50.0486L38.7014 90.6792" stroke="white" stroke-width="0.366038"/>
<path id="Vector 110" d="M76.4043 64.6906C78.7469 80.2106 79.3326 84.5786 79.3326 84.4566L76.4043 84.8226V64.6906Z" stroke="white" stroke-width="0.366038"/>
<rect id="Rectangle 2206" x="8.1381" y="22.4132" width="32.5774" height="3.29434" stroke="white" stroke-width="0.366038"/>
<rect id="Rectangle 2207" x="8.1381" y="33.3943" width="58.9321" height="3.29434" stroke="white" stroke-width="0.366038"/>
<path id="Rectangle 2208" d="M8.1381 44.3755H66.7763L63.5221 47.3042L8.1381 47.6686V44.3755Z" stroke="white" stroke-width="0.366038"/>
<path id="Rectangle 2209" d="M8.1381 54.6245H55.8302L52.5359 57.9188H8.1381V54.6245Z" stroke="white" stroke-width="0.366038"/>
<path id="Rectangle 2210" d="M8.1381 65.6056H44.4015L40.9361 68.9H8.1381V65.6056Z" stroke="white" stroke-width="0.366038"/>
<path id="Rectangle 2211" d="M8.1381 76.5868H32.4038L29.1095 79.8811H8.1381V76.5868Z" stroke="white" stroke-width="0.366038"/>
</g>
</svg>
