<svg width="115" height="88" viewBox="0 0 115 88" fill="none" xmlns="http://www.w3.org/2000/svg">
<g id="&#208;&#151;&#208;&#146;&#208;&#149;&#208;&#151;&#208;&#148;&#208;&#144;">
<path id="Vector 97" d="M32.8721 25.8352C32.8721 25.9731 27.8223 26.2491 7.62305 26.2491L29.5608 4.72528H42.3923L32.8721 25.8352Z" stroke="white" stroke-width="0.676647"/>
<path id="Vector 98" d="M32.8721 28.7326C32.8721 28.5946 27.8223 28.7326 7.62305 28.7326L53.5681 77.9891L32.8721 28.7326Z" stroke="white" stroke-width="0.676647"/>
<path id="Vector 99" d="M54.8097 75.9194C54.6717 76.0574 50.5877 66.8132 35.3555 28.7326H73.85L54.8097 75.9194Z" stroke="white" stroke-width="0.676647"/>
<path id="Vector 100" d="M73.85 25.8352C73.85 25.9731 65.8199 26.2491 35.3555 26.2491L44.8756 4.72528H63.0881L73.85 25.8352Z" stroke="white" stroke-width="0.676647"/>
<path id="Vector 101" d="M75.9194 5.13919C75.7814 5.00122 73.5187 4.72527 65.5714 4.72527L76.3333 26.2491H89.5788L89.9927 26.663V27.9048L89.1648 28.7326H76.3333L55.6374 77.989L96.6154 33.6996L97.4432 33.2857L98.685 33.6996L99.5128 34.5275L99.9267 35.7692L98.685 37.8388L53.9817 86.6813L1 27.4908V25.8352L26.663 1H78.4029L97.8571 17.5568L98.2711 18.7985L97.8571 20.4542L97.0293 21.696H94.9597L75.9194 5.13919Z" stroke="white" stroke-width="0.676647"/>
<path id="Vector 102" d="M95.373 27.0769C100.754 27.4908 104.479 24.5934 104.893 17.5568L105.165 19.9995C105.259 20.8478 105.502 21.6728 105.884 22.4362C106.584 23.8365 107.72 24.9719 109.12 25.672L109.381 25.8025C109.974 26.0991 110.602 26.3218 111.249 26.4657L113.999 27.0769L112.091 27.554C111.16 27.7867 110.266 28.1462 109.432 28.6223L108.912 28.9197C108.17 29.3434 107.511 29.8964 106.964 30.5525C106.15 31.5292 105.611 32.7049 105.402 33.9589L104.893 37.011L104.296 33.7245C104.143 32.8862 103.849 32.0799 103.427 31.3401C102.761 30.1749 101.795 29.2093 100.63 28.5435L100.593 28.5224C99.8772 28.1133 99.1 27.8223 98.2915 27.6606L95.373 27.0769Z" stroke="white" stroke-width="0.676647"/>
</g>
</svg>
