<svg width="124" height="106" viewBox="0 0 124 106" fill="none" xmlns="http://www.w3.org/2000/svg">
<g id="Frame 10">
<g id="&#208;&#146;&#208;&#160;&#208;&#149;&#208;&#156;&#208;&#175;">
<g id="Ellipse 78">
<mask id="path-1-inside-1_612_2383" fill="white">
<path d="M66.0434 23.1423C66.2047 21.3592 64.8903 19.7692 63.1001 19.744C57.4307 19.664 51.7917 20.7362 46.5244 22.9091C40.2554 25.4951 34.6973 29.5641 30.3205 34.7717C25.9437 39.9793 22.8771 46.1721 21.3802 52.8261C19.8833 59.48 20.0002 66.3992 21.721 72.998C23.4418 79.5969 26.7157 85.6811 31.2659 90.7357C35.816 95.7903 41.5083 99.6666 47.861 102.036C54.2137 104.406 61.0399 105.2 67.7617 104.35C73.4197 103.635 78.8637 101.773 83.7694 98.8889C85.3036 97.987 85.6646 95.9702 84.658 94.5026C83.6419 93.0212 81.6202 92.6645 80.0582 93.5515C76.0235 95.8428 71.5754 97.3274 66.9591 97.911C61.2644 98.6308 55.4813 97.9585 50.0994 95.9508C44.7174 93.9431 39.8949 90.6591 36.04 86.3769C32.1852 82.0946 29.4115 76.9401 27.9537 71.3496C26.4959 65.7591 26.3968 59.8972 27.665 54.26C28.9332 48.6229 31.5312 43.3763 35.2391 38.9645C38.9471 34.5527 43.6559 31.1054 48.967 28.9145C53.2735 27.138 57.8732 26.2299 62.5064 26.2295C64.3 26.2294 65.8818 24.9286 66.0434 23.1423Z"/>
</mask>
<path d="M66.0434 23.1423C66.2047 21.3592 64.8903 19.7692 63.1001 19.744C57.4307 19.664 51.7917 20.7362 46.5244 22.9091C40.2554 25.4951 34.6973 29.5641 30.3205 34.7717C25.9437 39.9793 22.8771 46.1721 21.3802 52.8261C19.8833 59.48 20.0002 66.3992 21.721 72.998C23.4418 79.5969 26.7157 85.6811 31.2659 90.7357C35.816 95.7903 41.5083 99.6666 47.861 102.036C54.2137 104.406 61.0399 105.2 67.7617 104.35C73.4197 103.635 78.8637 101.773 83.7694 98.8889C85.3036 97.987 85.6646 95.9702 84.658 94.5026C83.6419 93.0212 81.6202 92.6645 80.0582 93.5515C76.0235 95.8428 71.5754 97.3274 66.9591 97.911C61.2644 98.6308 55.4813 97.9585 50.0994 95.9508C44.7174 93.9431 39.8949 90.6591 36.04 86.3769C32.1852 82.0946 29.4115 76.9401 27.9537 71.3496C26.4959 65.7591 26.3968 59.8972 27.665 54.26C28.9332 48.6229 31.5312 43.3763 35.2391 38.9645C38.9471 34.5527 43.6559 31.1054 48.967 28.9145C53.2735 27.138 57.8732 26.2299 62.5064 26.2295C64.3 26.2294 65.8818 24.9286 66.0434 23.1423Z" stroke="white" stroke-width="1.19635" mask="url(#path-1-inside-1_612_2383)"/>
</g>
<g id="Ellipse 79">
<mask id="path-2-inside-2_612_2383" fill="white">
<path d="M88.5733 33.0522C89.8591 31.8528 89.9377 29.8283 88.6449 28.6365C87.8005 27.858 86.9244 27.1146 86.0188 26.4081C84.6347 25.3282 82.6532 25.7322 81.6776 27.1917C80.6983 28.6564 81.1051 30.6273 82.4792 31.7302C82.9871 32.1379 83.4838 32.5595 83.9686 32.9944C85.2786 34.1698 87.2863 34.2527 88.5733 33.0522Z"/>
</mask>
<path d="M88.5733 33.0522C89.8591 31.8528 89.9377 29.8283 88.6449 28.6365C87.8005 27.858 86.9244 27.1146 86.0188 26.4081C84.6347 25.3282 82.6532 25.7322 81.6776 27.1917C80.6983 28.6564 81.1051 30.6273 82.4792 31.7302C82.9871 32.1379 83.4838 32.5595 83.9686 32.9944C85.2786 34.1698 87.2863 34.2527 88.5733 33.0522Z" stroke="white" stroke-width="1.19635" mask="url(#path-2-inside-2_612_2383)"/>
</g>
<g id="Ellipse 80">
<mask id="path-3-inside-3_612_2383" fill="white">
<path d="M97.0369 42.9235C98.4835 41.924 98.8557 39.9324 97.7501 38.5652C97.0279 37.6722 96.2693 36.8092 95.4761 35.9785C94.2638 34.7088 92.2447 34.8202 91.067 36.1222C89.8851 37.4289 90.0009 39.438 91.1999 40.729C91.6431 41.2063 92.0732 41.6957 92.4895 42.1965C93.6146 43.5499 95.5889 43.924 97.0369 42.9235Z"/>
</mask>
<path d="M97.0369 42.9235C98.4835 41.924 98.8557 39.9324 97.7501 38.5652C97.0279 37.6722 96.2693 36.8092 95.4761 35.9785C94.2638 34.7088 92.2447 34.8202 91.067 36.1222C89.8851 37.4289 90.0009 39.438 91.1999 40.729C91.6431 41.2063 92.0732 41.6957 92.4895 42.1965C93.6146 43.5499 95.5889 43.924 97.0369 42.9235Z" stroke="white" stroke-width="1.19635" mask="url(#path-3-inside-3_612_2383)"/>
</g>
<g id="Ellipse 81">
<mask id="path-4-inside-4_612_2383" fill="white">
<path d="M101.307 55.5608C103.038 55.255 104.207 53.5998 103.771 51.8962C103.487 50.7834 103.157 49.6829 102.782 48.5972C102.209 46.9377 100.327 46.1975 98.7144 46.8903C97.0954 47.5856 96.3634 49.4601 96.9153 51.1334C97.1193 51.752 97.3063 52.376 97.476 53.0048C97.9348 54.704 99.5736 55.8668 101.307 55.5608Z"/>
</mask>
<path d="M101.307 55.5608C103.038 55.255 104.207 53.5998 103.771 51.8962C103.487 50.7834 103.157 49.6829 102.782 48.5972C102.209 46.9377 100.327 46.1975 98.7144 46.8903C97.0954 47.5856 96.3634 49.4601 96.9153 51.1334C97.1193 51.752 97.3063 52.376 97.476 53.0048C97.9348 54.704 99.5736 55.8668 101.307 55.5608Z" stroke="white" stroke-width="1.19635" mask="url(#path-4-inside-4_612_2383)"/>
</g>
<g id="Ellipse 82">
<mask id="path-5-inside-5_612_2383" fill="white">
<path d="M101.691 68.8928C103.434 69.1263 105.049 67.903 105.151 66.1476C105.217 65.001 105.236 63.8522 105.208 62.704C105.165 60.9489 103.596 59.6732 101.849 59.8445C100.095 60.0164 98.8298 61.5809 98.8485 63.3427C98.8554 63.994 98.8445 64.6454 98.8157 65.296C98.7378 67.0543 99.9471 68.6592 101.691 68.8928Z"/>
</mask>
<path d="M101.691 68.8928C103.434 69.1263 105.049 67.903 105.151 66.1476C105.217 65.001 105.236 63.8522 105.208 62.704C105.165 60.9489 103.596 59.6732 101.849 59.8445C100.095 60.0164 98.8298 61.5809 98.8485 63.3427C98.8554 63.994 98.8445 64.6454 98.8157 65.296C98.7378 67.0543 99.9471 68.6592 101.691 68.8928Z" stroke="white" stroke-width="1.19635" mask="url(#path-5-inside-5_612_2383)"/>
</g>
<g id="Ellipse 83">
<mask id="path-6-inside-6_612_2383" fill="white">
<path d="M97.1308 81.5203C98.6617 82.3852 100.616 81.8505 101.363 80.2588C101.851 79.2192 102.296 78.1599 102.697 77.0836C103.31 75.4385 102.328 73.6707 100.643 73.1798C98.9509 72.6871 97.1941 73.6686 96.5562 75.311C96.3203 75.9181 96.0679 76.5187 95.7991 77.1119C95.0729 78.7151 95.5985 80.6546 97.1308 81.5203Z"/>
</mask>
<path d="M97.1308 81.5203C98.6617 82.3852 100.616 81.8505 101.363 80.2588C101.851 79.2192 102.296 78.1599 102.697 77.0836C103.31 75.4385 102.328 73.6707 100.643 73.1798C98.9509 72.6871 97.1941 73.6686 96.5562 75.311C96.3203 75.9181 96.0679 76.5187 95.7991 77.1119C95.0729 78.7151 95.5985 80.6546 97.1308 81.5203Z" stroke="white" stroke-width="1.19635" mask="url(#path-6-inside-6_612_2383)"/>
</g>
<g id="Ellipse 84">
<mask id="path-7-inside-7_612_2383" fill="white">
<path d="M88.6642 91.8794C89.9021 93.1281 91.9281 93.1451 93.0801 91.8166C93.8325 90.9489 94.5489 90.0506 95.2275 89.124C96.2648 87.7077 95.8007 85.7394 94.3123 84.8086C92.8184 83.8743 90.8609 84.3409 89.8002 85.7479C89.4081 86.268 89.0019 86.7772 88.5819 87.275C87.4469 88.6201 87.4251 90.6295 88.6642 91.8794Z"/>
</mask>
<path d="M88.6642 91.8794C89.9021 93.1281 91.9281 93.1451 93.0801 91.8166C93.8325 90.9489 94.5489 90.0506 95.2275 89.124C96.2648 87.7077 95.8007 85.7394 94.3123 84.8086C92.8184 83.8743 90.8609 84.3409 89.8002 85.7479C89.4081 86.268 89.0019 86.7772 88.5819 87.275C87.4469 88.6201 87.4251 90.6295 88.6642 91.8794Z" stroke="white" stroke-width="1.19635" mask="url(#path-7-inside-7_612_2383)"/>
</g>
<path id="Rectangle 2203" d="M63.1077 19.4408V15.5906C63.1077 15.3407 63.396 15.201 63.5921 15.3559L73.3838 23.0861C73.537 23.2072 73.5351 23.4402 73.3799 23.5587L63.5882 31.0313C63.3914 31.1815 63.1077 31.0411 63.1077 30.7935V26.6189V19.4408Z" fill="#0A1128" stroke="white" stroke-width="0.598176"/>
<path id="Rectangle 2204" d="M55.1569 37.0324C55.3457 36.6007 55.8363 36.3886 56.2802 36.5468L84.2919 46.5312C84.7641 46.6995 85.0068 47.2221 84.8308 47.6915L83.8752 50.2396C83.7036 50.6972 83.1974 50.9333 82.7365 50.7707L54.5497 40.8224C54.058 40.6489 53.8173 40.0943 54.0263 39.6166L55.1569 37.0324Z" stroke="white" stroke-width="0.598176"/>
<path id="Vector 95" d="M55.3311 41.5733C55.3284 41.5805 55.3338 41.5661 55.3311 41.5733ZM55.3311 41.5733C52.4269 49.4138 52.6244 51.6154 52.9121 52.2844C52.9284 52.3223 52.9511 52.3567 52.9767 52.3891L59.6263 60.7734C59.7461 60.9244 59.7857 61.124 59.7328 61.3094L59.3153 62.7707C59.2558 62.9788 59.0886 63.1385 58.878 63.1884L48.1409 65.7314C47.9598 65.7743 47.809 65.899 47.7329 66.0688L44.1704 74.0159C44.0518 74.2804 43.7607 74.4218 43.4795 74.3515L43.2757 74.3006C42.9855 74.228 42.6863 74.381 42.5752 74.6587L41.2053 78.0836C41.0793 78.3985 41.2401 78.755 41.5595 78.8691L69.7861 88.9501C70.071 89.0518 70.387 88.9248 70.5223 88.6542L72.1861 85.3267C72.3012 85.0964 72.2561 84.8183 72.074 84.6362L71.4288 83.991C71.2766 83.8388 71.2179 83.6165 71.2751 83.409L73.4952 75.3613C73.5455 75.1788 73.5065 74.9832 73.3899 74.834L66.2248 65.6627C66.1426 65.5575 66.0971 65.428 66.1024 65.2946C66.1199 64.8593 66.1936 64.2085 66.3971 64.0049C66.4497 63.9524 66.4936 63.8988 66.5301 63.8463C66.6889 63.6175 66.8884 63.3624 67.1599 63.2997L74.4123 61.6261C74.4523 61.6169 74.4913 61.6035 74.5285 61.5864L78.1533 59.9134C78.2868 59.8518 78.393 59.7431 78.4514 59.6081L81.9812 51.4625C82.1236 51.1339 81.9473 50.7546 81.6042 50.6517L79.8384 50.1219C79.5191 50.0261 79.183 50.2099 79.0914 50.5306L77.5059 56.0796C77.478 56.1773 77.4256 56.2663 77.3538 56.3382L75.196 58.4959C75.1142 58.5778 75.0104 58.6341 74.8972 58.6581L65.5096 60.6494C65.3163 60.6904 65.1558 60.8242 65.0806 61.0068L63.2396 65.4777C63.1577 65.6766 63.1889 65.9042 63.3214 66.0737L70.3867 75.1173C70.5101 75.2753 70.5462 75.4846 70.4828 75.6748L68.3808 81.9809C68.2763 82.2943 67.9376 82.4637 67.6242 82.3592L47.2591 75.5709C46.9326 75.462 46.7651 75.1008 46.8929 74.7812L49.0171 69.4708C49.0389 69.4162 49.0686 69.3652 49.1054 69.3193L50.1077 68.0664C50.1971 67.9546 50.3238 67.8786 50.4645 67.8522L55.0318 66.9958L60.4554 65.2831C60.62 65.2311 60.7541 65.1106 60.8233 64.9524L62.6619 60.7499C62.7517 60.5447 62.7193 60.3067 62.5781 60.1329L56.113 52.1757C55.4433 51.3515 55.2609 50.2339 55.6338 49.2396L56.8263 46.0596L57.8335 43.038C57.9379 42.7246 57.7686 42.3859 57.4552 42.2814L55.3311 41.5733Z" stroke="white" stroke-width="0.598176"/>
</g>
</g>
</svg>
